<svg width="24" height="24" viewBox="0 0 24 24" fill="none" xmlns="http://www.w3.org/2000/svg">
<path d="M12.0001 7.488C10.8961 7.488 10.0081 6.6 10.0081 5.496C10.0081 4.392 10.8961 3.504 12.0001 3.504C13.1041 3.504 13.9921 4.392 13.9921 5.496C13.9921 6.6 13.1041 7.488 12.0001 7.488V7.488ZM12.0001 13.992C10.8961 13.992 10.0081 13.104 10.0081 12C10.0081 10.896 10.8961 10.008 12.0001 10.008C13.1041 10.008 13.9921 10.896 13.9921 12C13.9921 13.104 13.1041 13.992 12.0001 13.992V13.992ZM12.0001 20.496C10.8961 20.496 10.0081 19.608 10.0081 18.504C10.0081 17.4 10.8961 16.488 12.0001 16.488C13.1041 16.488 13.9921 17.4 13.9921 18.504C13.9921 19.608 13.1041 20.496 12.0001 20.496V20.496Z" fill="black"/>
</svg>
